<svg xmlns="http://www.w3.org/2000/svg" width="128" height="128" viewBox="0 0 128 128">
  <defs>
    <linearGradient id="bg" x1="0" y1="0" x2="0" y2="1">
      <stop offset="0%" stop-color="#21344a"></stop>
      <stop offset="100%" stop-color="#111c27"></stop>
    </linearGradient>
    <radialGradient id="core" cx="50%" cy="40%" r="62%">
      <stop offset="0%" stop-color="#F0D88A"></stop>
      <stop offset="44%" stop-color="#C9A227"></stop>
      <stop offset="100%" stop-color="#2D6CDF"></stop>
    </radialGradient>
    <radialGradient id="halo" cx="50%" cy="50%" r="50%">
      <stop offset="0%" stop-color="#E5C24E" stop-opacity="0.55"></stop>
      <stop offset="60%" stop-color="#C9A227" stop-opacity="0.12"></stop>
      <stop offset="100%" stop-color="#C9A227" stop-opacity="0"></stop>
    </radialGradient>
    <linearGradient id="metal" x1="0" y1="0" x2="0" y2="1">
      <stop offset="0%" stop-color="#E5C24E"></stop>
      <stop offset="100%" stop-color="#8A7320"></stop>
    </linearGradient>
  </defs>
  <rect x="2" y="2" width="124" height="124" rx="28" fill="url(#bg)" stroke="#8A7320" stroke-width="1.5"></rect>
  <g transform="translate(30 21) scale(0.71)">
    <circle cx="48" cy="66" r="50" fill="url(#halo)"></circle>
    <path d="M38 20 C38 9 58 9 58 20" fill="none" stroke="url(#metal)" stroke-width="4.5" stroke-linecap="round"></path>
    <rect x="44" y="14" width="8" height="7" rx="2" fill="#C9A227"></rect>
    <rect x="34" y="26" width="28" height="5" rx="2.5" fill="#C9A227"></rect>
    <path d="M30 40 L66 40 L60 30 L36 30 Z" fill="url(#metal)" stroke="#8A7320" stroke-width="1" stroke-linejoin="round"></path>
    <rect x="33" y="41" width="30" height="56" rx="9" fill="#0b141d" stroke="#C9A227" stroke-width="3.5"></rect>
    <rect x="39" y="47" width="18" height="44" rx="6" fill="url(#core)"></rect>
    <line x1="48" y1="45" x2="48" y2="93" stroke="#C9A227" stroke-width="2.5" opacity="0.85"></line>
    <line x1="34" y1="69" x2="62" y2="69" stroke="#C9A227" stroke-width="2.5" opacity="0.85"></line>
    <path d="M34 97 L62 97 L58 106 L38 106 Z" fill="url(#metal)" stroke="#8A7320" stroke-width="1" stroke-linejoin="round"></path>
    <rect x="40" y="106" width="16" height="5" rx="2" fill="#C9A227"></rect>
  </g>
</svg>